<?xml version="1.0" standalone="no"?>
<!DOCTYPE svg PUBLIC "-//W3C//DTD SVG 20010904//EN"
 "http://www.w3.org/TR/2001/REC-SVG-20010904/DTD/svg10.dtd">
<svg version="1.0" xmlns="http://www.w3.org/2000/svg"
 width="225.000000pt" height="225.000000pt" viewBox="0 0 225.000000 225.000000"
 preserveAspectRatio="xMidYMid meet">
<metadata>
Created by potrace 1.16, written by Peter Selinger 2001-2019
</metadata>
<g transform="translate(0.000000,225.000000) scale(0.100000,-0.100000)"
fill="#000000" stroke="none">
<path d="M920 1939 c-301 -80 -533 -313 -610 -613 -28 -110 -28 -292 0 -402
71 -279 278 -502 554 -596 81 -28 107 -32 231 -36 128 -4 150 -2 238 22 378
100 627 422 627 810 0 391 -254 718 -634 816 -109 27 -299 27 -406 -1z m140
-67 c0 -20 -33 -118 -48 -141 -60 -98 -159 -157 -293 -174 l-89 -11 0 -58 0
-58 33 0 c114 0 237 -50 306 -125 51 -55 68 -92 92 -204 30 -136 84 -205 195
-247 59 -23 60 -49 2 -40 -24 4 -212 9 -418 12 -206 2 -385 7 -397 9 -61 14
-95 305 -54 465 36 143 120 287 219 378 50 46 161 118 219 143 48 20 182 57
216 58 9 1 17 -3 17 -7z m268 -16 c124 -33 280 -130 355 -220 20 -24 37 -47
37 -49 0 -3 -143 -8 -317 -11 -175 -3 -339 -8 -365 -12 -68 -9 -61 10 15 44
83 38 137 100 162 184 10 35 20 66 22 71 6 10 31 9 91 -7z m137 -455 l370 -6
23 -85 c19 -72 21 -104 18 -210 -3 -106 -8 -138 -33 -212 -78 -225 -256 -405
-479 -480 -134 -45 -145 -38 -100 59 60 128 198 213 349 213 l47 0 0 58 0 58
-84 11 c-103 14 -184 51 -244 110 -51 52 -76 103 -97 203 -30 141 -73 201
-182 251 -79 37 -83 55 -10 44 28 -4 219 -10 422 -14z m-165 -735 c0 -8 -29
-29 -64 -46 -86 -41 -138 -100 -162 -185 -17 -58 -22 -65 -44 -65 -44 0 -152
36 -235 77 -116 59 -245 160 -245 193 0 5 147 10 328 13 180 3 343 9 362 15
50 14 60 14 60 -2z"/>
</g>
</svg>
